<svg width="60" height="46" viewBox="0 0 64 50" fill="none" xmlns="http://www.w3.org/2000/svg"><circle cx="32" cy="17" r="15" fill="#fff"></circle><mask id="Freedelivery_svg__a" maskUnits="userSpaceOnUse" x="25" y="8" width="5" height="5" style="mask-type: luminance;"><path fill-rule="evenodd" clip-rule="evenodd" d="M25.368 8.818h4.001v3.971h-4V8.82Z" fill="#fff"></path></mask><g mask="url(#Freedelivery_svg__a)"><path fill-rule="evenodd" clip-rule="evenodd" d="m27.325 10.355.74 1.09c.072.108.008.258-.114.272l-1.256.137c-.123.014-.213-.12-.163-.24l.516-1.229a.156.156 0 0 1 .277-.03Zm-.548-1.334-1.38 3.285c-.101.241.08.508.326.481l3.358-.368c.245-.027.372-.328.227-.541L27.33 8.96a.312.312 0 0 0-.553.06Z" fill="#606060"></path></g><path fill-rule="evenodd" clip-rule="evenodd" d="M31.858 9.103a8.005 8.005 0 0 0-3.62.857l.482.667a7.2 7.2 0 0 1 3.066-.714 7.211 7.211 0 0 1 7.301 7.218 7.23 7.23 0 1 1-14.458-.056.337.337 0 0 0-.338-.34h-.135a.338.338 0 0 0-.338.334v.073c0 2.148.836 4.167 2.355 5.685a8.03 8.03 0 0 0 5.685 2.355 7.987 7.987 0 0 0 5.684-2.355 7.987 7.987 0 0 0 2.355-5.685 7.987 7.987 0 0 0-2.355-5.685 7.987 7.987 0 0 0-5.684-2.354Z" fill="#606060"></path><path fill-rule="evenodd" clip-rule="evenodd" d="M34.073 20.383h-3.81c-.679 0-1.252-.486-1.337-1.134l-.5-3.129a.165.165 0 0 1 .167-.183h7.15c.1 0 .18.086.166.183l-.5 3.129c-.085.648-.658 1.134-1.336 1.134Zm-1.906-6.173c.475 0 .872.323.967.753.023.1-.058.196-.165.196h-1.603c-.107 0-.188-.095-.165-.196a.982.982 0 0 1 .966-.753Zm2.107.949a.334.334 0 0 1-.332-.275c-.139-.823-.882-1.453-1.774-1.453-.893 0-1.636.63-1.774 1.453a.334.334 0 0 1-.333.275h-2.195a.33.33 0 0 0-.334.365l.606 3.937c.129.972.988 1.7 2.006 1.7h4.047c1.018 0 1.877-.728 2.006-1.7l.606-3.937a.329.329 0 0 0-.334-.365h-2.195Z" fill="#606060"></path><path fill-rule="evenodd" clip-rule="evenodd" d="M32.09 19.306h-.154c-.214 0-.387-.156-.387-.348v-1.777c0-.193.173-.349.387-.349h.154c.214 0 .387.156.387.349v1.777c0 .192-.173.348-.387.348M33.636 19.306h-.154c-.214 0-.387-.156-.387-.348v-1.777c0-.193.173-.349.387-.349h.154c.214 0 .387.156.387.349v1.777c0 .192-.173.348-.387.348M30.853 19.306H30.7c-.214 0-.387-.156-.387-.348v-1.777c0-.193.173-.349.387-.349h.154c.214 0 .387.156.387.349v1.777c0 .192-.173.348-.387.348" fill="#606060"></path><path d="M2.71 45h1.17v-2.88h3.33v-1.03H3.88v-1.73h3.4v-1.03H2.71V45Zm5.585 0h1.05v-3.29c.21-.34.8-.64 1.24-.64.13 0 .24.01.33.03v-1.04c-.63 0-1.21.36-1.57.82v-.71h-1.05V45Zm3.167-2.42c0 1.53 1.08 2.54 2.53 2.54.77 0 1.48-.24 1.96-.7l-.48-.69c-.34.34-.9.53-1.37.53-.91 0-1.46-.6-1.54-1.33h3.73v-.25c0-1.52-.93-2.63-2.38-2.63-1.43 0-2.45 1.13-2.45 2.53Zm2.45-1.67c.95 0 1.34.71 1.36 1.28h-2.72c.05-.59.46-1.28 1.36-1.28Zm3.116 1.67c0 1.53 1.08 2.54 2.53 2.54.77 0 1.48-.24 1.96-.7l-.48-.69c-.34.34-.9.53-1.37.53-.91 0-1.46-.6-1.54-1.33h3.73v-.25c0-1.52-.93-2.63-2.38-2.63-1.43 0-2.45 1.13-2.45 2.53Zm2.45-1.67c.95 0 1.34.71 1.36 1.28h-2.72c.05-.59.46-1.28 1.36-1.28ZM25.493 45h2.48c2.08 0 3.49-1.37 3.49-3.33s-1.41-3.34-3.49-3.34h-2.48V45Zm1.17-1.03v-4.61h1.31c1.49 0 2.29 1.02 2.29 2.31 0 1.26-.84 2.3-2.29 2.3h-1.31Zm5.6-1.39c0 1.53 1.08 2.54 2.53 2.54.77 0 1.48-.24 1.96-.7l-.48-.69c-.34.34-.9.53-1.37.53-.91 0-1.46-.6-1.54-1.33h3.73v-.25c0-1.52-.93-2.63-2.38-2.63-1.43 0-2.45 1.13-2.45 2.53Zm2.45-1.67c.95 0 1.34.71 1.36 1.28h-2.72c.05-.59.46-1.28 1.36-1.28ZM38.129 45h1.05v-6.67h-1.05V45Zm2.932-5.63c.36 0 .65-.29.65-.65 0-.36-.29-.65-.65-.65-.35 0-.65.29-.65.65 0 .36.3.65.65.65Zm-.52 5.63h1.05v-4.83h-1.05V45Zm3.682 0h1.13l1.97-4.83h-1.13l-1.41 3.62-1.41-3.62h-1.12l1.97 4.83Zm3.46-2.42c0 1.53 1.08 2.54 2.53 2.54.77 0 1.48-.24 1.96-.7l-.48-.69c-.34.34-.9.53-1.37.53-.91 0-1.46-.6-1.54-1.33h3.73v-.25c0-1.52-.93-2.63-2.38-2.63-1.43 0-2.45 1.13-2.45 2.53Zm2.45-1.67c.95 0 1.34.71 1.36 1.28h-2.72c.05-.59.46-1.28 1.36-1.28ZM53.549 45h1.05v-3.29c.21-.34.8-.64 1.24-.64.13 0 .24.01.33.03v-1.04c-.63 0-1.21.36-1.57.82v-.71h-1.05V45Zm3.417.95-.16.94c.15.04.44.07.59.07.75-.01 1.33-.27 1.66-1.09l2.33-5.7h-1.13l-1.41 3.62-1.41-3.62h-1.12l1.98 4.89-.24.55c-.14.32-.36.42-.69.42-.12 0-.29-.03-.4-.08Z" fill="#303030"></path></svg>