<svg width="30" height="30" fill="none" xmlns="http://www.w3.org/2000/svg"><path fill-rule="evenodd" clip-rule="evenodd" d="M18.465 6c.128 1.093-.257 2.121-.9 2.893-.643.77-1.671 1.35-2.7 1.22-.128-1.028.386-2.12.964-2.763.643-.707 1.736-1.286 2.636-1.35Zm0 4.371c.579 0 2.186.257 3.278 1.8a.64.64 0 0 1-.054.039c-.322.22-1.922 1.309-1.745 3.368 0 2.764 2.378 3.664 2.378 3.664-.015.015-.045.094-.093.224-.155.42-.505 1.364-1.193 2.347-.771 1.093-1.542 2.185-2.764 2.185-.556 0-.949-.163-1.357-.333-.44-.183-.899-.374-1.6-.374-.768 0-1.232.19-1.682.373-.378.155-.746.305-1.274.334-1.157.064-2.057-1.156-2.829-2.25-1.478-2.185-2.7-6.299-1.092-9.063.771-1.35 2.185-2.25 3.663-2.25.668-.037 1.314.226 1.877.455.413.167.781.317 1.08.317.276 0 .64-.147 1.064-.318.665-.268 1.48-.596 2.343-.518Z" fill="#000"></path><rect x="0.25" y="0.25" width="29.5" height="29.501" rx="5.75" stroke="#000" stroke-width="0.5"></rect></svg>