<svg width="60" height="46" viewBox="0 0 64 50" fill="none" xmlns="http://www.w3.org/2000/svg"><circle cx="32" cy="17" r="15" fill="#fff"></circle><path fill-rule="evenodd" clip-rule="evenodd" d="M35.668 24.369c-2.056 0-3.723-1.712-3.723-3.824 0-2.111 1.667-3.823 3.723-3.823s3.722 1.712 3.722 3.823c0 2.112-1.666 3.824-3.722 3.824Zm0-8.46c-2.49 0-4.514 2.08-4.514 4.636 0 2.557 2.025 4.637 4.514 4.637 2.489 0 4.514-2.08 4.514-4.637 0-2.556-2.025-4.636-4.514-4.636Z" fill="#606060"></path><path fill-rule="evenodd" clip-rule="evenodd" d="M31.561 23.837a7.108 7.108 0 0 1-6.947-7.122 7.096 7.096 0 0 1 7.104-7.1c3.923 0 7.103 3.184 7.103 7.112v.001c0 .07.03.136.085.18.11.088.218.18.321.278.143.134.377.041.385-.154a7.862 7.862 0 0 0-2.308-5.897 7.886 7.886 0 0 0-5.586-2.317c-2.11 0-4.094.823-5.586 2.317a7.862 7.862 0 0 0-2.314 5.592c0 2.1.83 4.108 2.314 5.593a7.843 7.843 0 0 0 5.711 2.315.228.228 0 0 0 .166-.38 5.042 5.042 0 0 1-.272-.33.227.227 0 0 0-.176-.088" fill="#606060"></path><path fill-rule="evenodd" clip-rule="evenodd" d="M31.483 12.09h-.094c-.13 0-.235-.137-.235-.307v-1.02c0-.17.105-.309.235-.309h.094c.13 0 .235.138.235.308v1.021c0 .17-.105.308-.235.308M25.511 16.227v-.09c0-.126.143-.228.318-.228h1.056c.176 0 .319.102.319.227v.091c0 .126-.143.228-.319.228H25.83c-.175 0-.318-.102-.318-.228M34.644 22.897l-1.14-1.256a.378.378 0 0 1 0-.498l.09-.1a.299.299 0 0 1 .452 0l.71.784a.15.15 0 0 0 .227 0l2.306-2.542a.299.299 0 0 1 .452 0l.09.1a.378.378 0 0 1 0 .497l-2.736 3.015a.299.299 0 0 1-.451 0M26.64 14c0 .15-.127.273-.283.273a.278.278 0 0 1-.282-.273c0-.15.127-.273.282-.273.156 0 .283.122.283.273M26.64 19.454c0 .151-.127.273-.283.273a.278.278 0 0 1-.282-.273c0-.15.127-.272.282-.272.156 0 .283.122.283.273M36.796 14c0 .15-.126.273-.282.273a.278.278 0 0 1-.282-.273c0-.15.126-.273.282-.273.156 0 .282.122.282.273M28.332 11.818c0 .15-.126.273-.282.273a.278.278 0 0 1-.282-.273c0-.15.126-.272.282-.272.156 0 .282.122.282.272M28.896 21.636c0 .151-.126.273-.282.273a.278.278 0 0 1-.282-.273c0-.15.127-.272.282-.272.156 0 .282.122.282.272M35.103 11.818c0 .15-.126.273-.282.273a.278.278 0 0 1-.282-.273c0-.15.126-.272.282-.272.156 0 .282.122.282.272M30.162 14.75l1.483 1.256a.2.2 0 0 0 .249 0l1.944-1.646a.4.4 0 0 1 .498 0l.1.085a.267.267 0 0 1 0 .421l-2.417 2.047a.4.4 0 0 1-.499 0l-1.956-1.656a.267.267 0 0 1 0-.422l.1-.085a.4.4 0 0 1 .498 0" fill="#606060"></path><path d="M14.41 41.67c0 1.99 1.41 3.45 3.41 3.45s3.41-1.46 3.41-3.45c0-1.99-1.41-3.45-3.41-3.45s-3.41 1.46-3.41 3.45Zm5.62 0c0 1.37-.87 2.41-2.21 2.41-1.35 0-2.21-1.04-2.21-2.41 0-1.38.86-2.41 2.21-2.41 1.34 0 2.21 1.03 2.21 2.41ZM25.586 45h1.05v-3.4c0-.99-.52-1.55-1.56-1.55-.76 0-1.38.4-1.7.78v-.66h-1.05V45h1.05v-3.37c.24-.33.7-.65 1.24-.65.59 0 .97.25.97 1V45Zm6.433.12c.49 0 .8-.13.99-.31l-.25-.79c-.08.09-.27.17-.47.17-.3 0-.46-.24-.46-.57v-2.53h.98v-.92h-.98v-1.32h-1.05v1.32h-.8v.92h.8v2.79c0 .8.43 1.24 1.24 1.24Zm2.263-5.75c.36 0 .65-.29.65-.65 0-.36-.29-.65-.65-.65-.35 0-.65.29-.65.65 0 .36.3.65.65.65Zm-.52 5.63h1.05v-4.83h-1.05V45Zm8.332 0h1.05v-3.49c0-.98-.5-1.46-1.39-1.46-.72 0-1.36.45-1.64.89-.16-.53-.6-.89-1.32-.89-.73 0-1.37.48-1.57.78v-.66h-1.05V45h1.05v-3.37c.22-.32.65-.65 1.11-.65.57 0 .8.35.8.87V45h1.05v-3.38c.21-.31.65-.64 1.12-.64.56 0 .79.35.79.87V45Zm2.11-2.42c0 1.53 1.08 2.54 2.53 2.54.77 0 1.48-.24 1.96-.7l-.48-.69c-.34.34-.9.53-1.37.53-.91 0-1.46-.6-1.54-1.33h3.73v-.25c0-1.52-.93-2.63-2.38-2.63-1.43 0-2.45 1.13-2.45 2.53Zm2.45-1.67c.95 0 1.34.71 1.36 1.28h-2.72c.05-.59.46-1.28 1.36-1.28Z" fill="#303030"></path></svg>