<svg width="30" height="30" viewBox="0 0 32 32" fill="none" xmlns="http://www.w3.org/2000/svg"><path d="M8.26 7.283c-.231.273-.349.623-.33.98v15.47c-.023.357.095.709.33.979l.048.056 8.666-8.666v-.21L8.308 7.235l-.049.05Z" fill="url(#Playstore_svg__a)"></path><path d="m19.841 18.994-2.867-2.888v-.21l2.867-2.888.063.042 3.434 1.944c.98.553.98 1.462 0 2.021l-3.42 1.944-.077.035Z" fill="url(#Playstore_svg__b)"></path><path d="M19.925 18.951 16.974 16 8.26 24.714a1.133 1.133 0 0 0 1.447.05l10.218-5.813Z" fill="url(#Playstore_svg__c)"></path><path d="M19.925 13.048 9.707 7.243a1.126 1.126 0 0 0-1.447.042L16.974 16l2.951-2.951Z" fill="url(#Playstore_svg__d)"></path><rect x="0.75" y="0.75" width="30.5" height="30.501" rx="4.25" stroke="#000" stroke-width="0.5"></rect><defs><linearGradient id="Playstore_svg__a" x1="13.177" y1="-3.272" x2="-0.699" y2="0.422" gradientUnits="userSpaceOnUse"><stop stop-color="#00A0FF"></stop><stop offset="0.01" stop-color="#00A1FF"></stop><stop offset="0.26" stop-color="#00BEFF"></stop><stop offset="0.51" stop-color="#00D2FF"></stop><stop offset="0.76" stop-color="#00DFFF"></stop><stop offset="1" stop-color="#00E3FF"></stop></linearGradient><linearGradient id="Playstore_svg__b" x1="24.618" y1="8.867" x2="7.7" y2="8.867" gradientUnits="userSpaceOnUse"><stop stop-color="#FFE000"></stop><stop offset="0.41" stop-color="#FFBD00"></stop><stop offset="0.78" stop-color="orange"></stop><stop offset="1" stop-color="#FF9C00"></stop></linearGradient><linearGradient id="Playstore_svg__c" x1="8.013" y1="11.468" x2="-3.15" y2="30.21" gradientUnits="userSpaceOnUse"><stop stop-color="#FF3A44"></stop><stop offset="1" stop-color="#C31162"></stop></linearGradient><linearGradient id="Playstore_svg__d" x1="1.458" y1="4.878" x2="6.439" y2="13.248" gradientUnits="userSpaceOnUse"><stop stop-color="#32A071"></stop><stop offset="0.07" stop-color="#2DA771"></stop><stop offset="0.48" stop-color="#15CF74"></stop><stop offset="0.8" stop-color="#06E775"></stop><stop offset="1" stop-color="#00F076"></stop></linearGradient></defs></svg>