<svg width="60" height="46" viewBox="0 0 64 50" fill="none" xmlns="http://www.w3.org/2000/svg"><circle cx="32" cy="17" r="15" fill="#fff"></circle><path fill-rule="evenodd" clip-rule="evenodd" d="M31.234 22.863c-.252.465-1.146 1.855-2.22 1.465a.15.15 0 0 0-.102 0c-1.074.39-1.969-1-2.22-1.465-.408-.756-.887-2.141-.155-3.188.809-1.157 2.007-.436 2.339-.212a.155.155 0 0 0 .174 0c.332-.224 1.53-.945 2.338.212.732 1.047.254 2.432-.154 3.188Zm.776-3.646c-.559-.8-1.26-.968-1.75-.968a2.44 2.44 0 0 0-.694.107.161.161 0 0 1-.203-.177c.04-.332.111-.741.236-1.158a.329.329 0 0 0-.194-.4l-.119-.046a.317.317 0 0 0-.416.21c-.136.451-.233 1.117-.276 1.445a.159.159 0 0 1-.203.136 2.456 2.456 0 0 0-.725-.117c-.49 0-1.191.168-1.75.968-.437.625-.605 1.41-.486 2.272.106.768.417 1.43.593 1.755.246.454 1.152 1.938 2.509 1.938.145 0 .289-.017.43-.052.143.035.287.052.432.052 1.356 0 2.263-1.483 2.509-1.938.175-.326.486-.987.593-1.755.119-.861-.05-1.647-.486-2.273Z" fill="#606060"></path><mask id="Quality_svg__a" maskUnits="userSpaceOnUse" x="30" y="8" width="8" height="18" style="mask-type: luminance;"><path fill-rule="evenodd" clip-rule="evenodd" d="M30.757 8.835h6.523v16.298h-6.523V8.835Z" fill="#fff"></path></mask><g mask="url(#Quality_svg__a)"><path fill-rule="evenodd" clip-rule="evenodd" d="M35.417 10.297c0 .09-.071.163-.16.163H32.78a.161.161 0 0 1-.16-.163V9.81c0-.09.072-.163.16-.163h2.479c.088 0 .16.073.16.163v.487Zm1.845 5.344-1.474-3.332a.165.165 0 0 1-.009-.054v-.983h.117c.177 0 .32-.145.32-.325V9.16a.322.322 0 0 0-.32-.325h-3.755a.322.322 0 0 0-.32.325v1.787c0 .18.143.325.32.325h.117v.983a.163.163 0 0 1-.01.054l-1.473 3.332a.33.33 0 0 0-.018.108v1.825c0 .16.116.297.272.321.037.006.074.012.111.02a.321.321 0 0 0 .383-.319v-1.693c0-.018.003-.036.01-.054l1.482-3.358a.163.163 0 0 0 .009-.054v-1.002c0-.09.072-.163.16-.163h1.67c.087 0 .159.073.159.163v1.002c0 .019.003.037.009.054l1.483 3.358c.005.018.009.036.009.054v8.288c0 .09-.072.162-.16.162h-4.293a.317.317 0 0 0-.24.11c-.034.04-.07.081-.108.121-.193.208-.049.55.232.55h5.016c.176 0 .319-.146.319-.326V15.75a.33.33 0 0 0-.018-.108Z" fill="#606060"></path></g><path fill-rule="evenodd" clip-rule="evenodd" d="m29.625 12.024 1.123.513-1.123.513-.514 1.123-.513-1.123-1.123-.513 1.123-.513.514-1.123.513 1.123Z" fill="#606060"></path><mask id="Quality_svg__b" maskUnits="userSpaceOnUse" x="24" y="14" width="3" height="3" style="mask-type: luminance;"><path fill-rule="evenodd" clip-rule="evenodd" d="M24.5 14.49h2.06v2.06H24.5v-2.06Z" fill="#fff"></path></mask><g mask="url(#Quality_svg__b)"><path fill-rule="evenodd" clip-rule="evenodd" d="m25.853 15.197.707.323-.707.323-.323.707-.323-.707-.707-.323.707-.323.323-.707.323.707Z" fill="#606060"></path></g><path fill-rule="evenodd" clip-rule="evenodd" d="m25.775 12.007.51.233-.51.233-.234.51-.233-.51-.51-.233.51-.233.233-.511.234.51ZM39.163 14.09l.51.232-.51.234-.233.51-.233-.51-.511-.234.51-.233.234-.51.233.51ZM39.367 9.125l.307.14-.307.14-.14.306-.14-.307-.306-.14.306-.14.14-.306.14.307ZM27.56 9.329l.51.233-.51.233-.234.51-.233-.51-.51-.233.51-.233.233-.51.233.51ZM38.066 11.318l.715.327-.715.326-.326.715-.327-.715-.715-.326.715-.327.327-.715.326.715Z" fill="#606060"></path><path d="M23.366 41.67c0-1.99-1.41-3.45-3.41-3.45s-3.41 1.46-3.41 3.45c0 1.99 1.41 3.45 3.41 3.45.63 0 1.2-.14 1.68-.4l.58.65.81-.68-.55-.62c.56-.61.89-1.44.89-2.4Zm-3.41 2.41c-1.35 0-2.21-1.04-2.21-2.41 0-1.38.86-2.41 2.21-2.41 1.34 0 2.21 1.03 2.21 2.41 0 .59-.16 1.12-.45 1.53l-.83-.93-.81.67.83.94c-.28.13-.6.2-.95.2Zm7.766.92h1.05v-4.83h-1.05v3.39c-.25.33-.71.63-1.24.63-.59 0-.97-.23-.97-.98v-3.04h-1.05v3.42c0 .99.51 1.53 1.55 1.53.76 0 1.36-.37 1.71-.76V45Zm5.364 0h1.05v-3.2c0-1.3-.94-1.75-2.01-1.75-.77 0-1.47.25-2.03.78l.43.73c.42-.41.89-.61 1.43-.61.67 0 1.13.34 1.13.9v.72c-.35-.41-.91-.62-1.56-.62-.79 0-1.68.46-1.68 1.57 0 1.07.89 1.6 1.68 1.6.64 0 1.2-.23 1.56-.64V45Zm0-1.1c-.24.33-.69.5-1.15.5-.59 0-1.03-.34-1.03-.86 0-.53.44-.87 1.03-.87.46 0 .91.17 1.15.5v.73Zm2.411 1.1h1.05v-6.67h-1.05V45Zm2.932-5.63c.36 0 .65-.29.65-.65 0-.36-.29-.65-.65-.65-.35 0-.65.29-.65.65 0 .36.3.65.65.65ZM37.91 45h1.05v-4.83h-1.05V45Zm3.863.12c.49 0 .8-.13.99-.31l-.25-.79c-.08.09-.27.17-.47.17-.3 0-.46-.24-.46-.57v-2.53h.98v-.92h-.98v-1.32h-1.05v1.32h-.8v.92h.8v2.79c0 .8.43 1.24 1.24 1.24Zm1.693.83-.16.94c.15.04.44.07.59.07.75-.01 1.33-.27 1.66-1.09l2.33-5.7h-1.13l-1.41 3.62-1.41-3.62h-1.12l1.98 4.89-.24.55c-.14.32-.36.42-.69.42-.12 0-.29-.03-.4-.08Z" fill="#303030"></path></svg>