<svg width="60" height="46" viewBox="0 0 64 50" fill="none" xmlns="http://www.w3.org/2000/svg"><circle cx="32" cy="17" r="15" fill="#fff"></circle><path d="M25.863 15.91h.465V15h1.057v-.399h-1.057v-.474h1.08v-.4h-1.545v2.183ZM28.967 15.91h.534l-.491-.831c.235-.056.477-.262.477-.648 0-.406-.278-.704-.733-.704h-1.02v2.183h.464v-.782h.34l.429.782Zm.046-1.482c0 .183-.14.3-.327.3h-.488v-.601h.488c.186 0 .327.117.327.3ZM29.836 15.91h1.545v-.402H30.3V15h1.057v-.399h-1.057v-.474h1.08v-.4h-1.545v2.183ZM31.744 15.91h1.545v-.402h-1.08V15h1.057v-.399h-1.057v-.474h1.08v-.4h-1.545v2.183Z" fill="#606060"></path><path fill-rule="evenodd" clip-rule="evenodd" d="M24.09 10.864a.41.41 0 0 1 .41-.41h10.227a.41.41 0 0 1 .41.41v8.863a.41.41 0 0 1-.41.41H24.5a.41.41 0 0 1-.41-.41v-8.863Zm.819.409v8.045h9.41v-8.045h-9.41Z" fill="#606060"></path><path fill-rule="evenodd" clip-rule="evenodd" d="M34.318 14.273a.41.41 0 0 1 .41-.41h2.727c.108 0 .212.044.289.12l2.045 2.046a.41.41 0 0 1 .12.29v3.408a.41.41 0 0 1-.41.41h-4.772a.41.41 0 0 1-.409-.41v-5.454Zm.818.409v4.636h3.955v-2.83l-1.806-1.806h-2.149ZM27.568 20.136a1.295 1.295 0 1 0 0 2.591 1.295 1.295 0 0 0 0-2.59Zm-2.113 1.296a2.114 2.114 0 1 1 4.227 0 2.114 2.114 0 0 1-4.227 0Z" fill="#606060"></path><path fill-rule="evenodd" clip-rule="evenodd" d="M36.432 20.136a1.295 1.295 0 1 0 0 2.591 1.295 1.295 0 0 0 0-2.59Zm-2.114 1.296a2.114 2.114 0 1 1 4.227 0 2.114 2.114 0 0 1-4.227 0Z" fill="#606060"></path><path d="M7.02 45h1.35l-1.63-2.62c.8-.13 1.58-.77 1.58-1.96 0-1.23-.86-2.09-2.18-2.09H3.21V45h1.17v-2.49h1.16L7.02 45Zm.1-4.58c0 .64-.48 1.06-1.14 1.06h-1.6v-2.12h1.6c.66 0 1.14.42 1.14 1.06Zm1.737 2.16c0 1.53 1.08 2.54 2.53 2.54.77 0 1.48-.24 1.96-.7l-.48-.69c-.34.34-.9.53-1.37.53-.91 0-1.46-.6-1.54-1.33h3.73v-.25c0-1.52-.93-2.63-2.38-2.63-1.43 0-2.45 1.13-2.45 2.53Zm2.45-1.67c.95 0 1.34.71 1.36 1.28h-2.72c.05-.59.46-1.28 1.36-1.28Zm4.866 4.21c.49 0 .8-.13.99-.31l-.25-.79c-.08.09-.27.17-.47.17-.3 0-.46-.24-.46-.57v-2.53h.98v-.92h-.98v-1.32h-1.05v1.32h-.8v.92h.8v2.79c0 .8.43 1.24 1.24 1.24Zm5.003-.12h1.05v-4.83h-1.05v3.39c-.25.33-.71.63-1.24.63-.59 0-.97-.23-.97-.98v-3.04h-1.05v3.42c0 .99.51 1.53 1.55 1.53.76 0 1.36-.37 1.71-.76V45Zm2.414 0h1.05v-3.29c.21-.34.8-.64 1.24-.64.13 0 .24.01.33.03v-1.04c-.63 0-1.21.36-1.57.82v-.71h-1.05V45Zm6.727 0h1.05v-3.4c0-.99-.52-1.55-1.56-1.55-.76 0-1.38.4-1.7.78v-.66h-1.05V45h1.05v-3.37c.24-.33.7-.65 1.24-.65.59 0 .97.25.97 1V45Zm5.012 0h1.17v-2.49h1.76c1.39 0 2.18-.96 2.18-2.09s-.78-2.09-2.18-2.09h-2.93V45Zm3.91-4.58c0 .64-.48 1.06-1.14 1.06h-1.6v-2.12h1.6c.66 0 1.14.42 1.14 1.06Zm4.178 4.7c1.55 0 2.49-1.15 2.49-2.54 0-1.38-.94-2.53-2.49-2.53-1.53 0-2.48 1.15-2.48 2.53 0 1.39.95 2.54 2.48 2.54Zm0-.93c-.89 0-1.39-.75-1.39-1.61 0-.85.5-1.6 1.39-1.6.9 0 1.4.75 1.4 1.6 0 .86-.5 1.61-1.4 1.61Zm3.552.81h1.05v-6.67h-1.05V45Zm2.932-5.63c.36 0 .65-.29.65-.65 0-.36-.29-.65-.65-.65-.35 0-.65.29-.65.65 0 .36.3.65.65.65Zm-.52 5.63h1.05v-4.83h-1.05V45Zm2.112-2.42c0 1.47 1.03 2.54 2.5 2.54.94 0 1.51-.4 1.85-.86l-.69-.64c-.27.37-.64.57-1.11.57-.88 0-1.46-.67-1.46-1.61 0-.94.58-1.6 1.46-1.6.47 0 .84.19 1.11.57l.69-.64c-.34-.46-.91-.86-1.85-.86-1.47 0-2.5 1.07-2.5 2.53Zm5.221 3.37-.16.94c.15.04.44.07.59.07.75-.01 1.33-.27 1.66-1.09l2.33-5.7h-1.13l-1.41 3.62-1.41-3.62h-1.12l1.98 4.89-.24.55c-.14.32-.36.42-.69.42-.12 0-.29-.03-.4-.08Z" fill="#303030"></path></svg>